<svg xmlns="http://www.w3.org/2000/svg" viewBox="0 0 500 500"><g id="freepik--background-complete--inject-16"><path d="M87.59,271.25l-13.12.27-6.66.12c-2.23,0-4.47,0-6.7.05h-.44v-.44l-.06-11.19v-.51h.5l13.24.06c4.42,0,8.83.11,13.24.16h.28v.27c0,1.89-.09,3.78-.13,5.65Zm0,0-.14-5.66c0-1.86-.11-3.7-.13-5.53l.27.27c-4.41.05-8.82.16-13.24.16l-13.24.07.5-.5,0,11.19-.45-.45c2.18,0,4.36,0,6.55.06l6.58.11Z" style="fill:#ebebeb"></path><path d="M72.82,285.36l-13.12.27-6.66.12c-2.23,0-4.47,0-6.7.05H45.9v-.44l-.06-11.19v-.51h.5l13.24.06c4.41,0,8.83.11,13.24.16h.28v.27c0,1.89-.08,3.78-.13,5.65Zm0,0-.14-5.66c-.05-1.86-.11-3.7-.13-5.53l.27.27c-4.41.05-8.83.16-13.24.16l-13.24.07.5-.5-.05,11.19-.45-.45c2.18,0,4.36,0,6.55,0l6.58.12Z" style="fill:#ebebeb"></path><path d="M239,305.72l-13.12.28-6.66.11c-2.23.05-4.47,0-6.7.05h-.44v-.45l-.06-11.19V294h.5l13.24.06c4.42,0,8.83.11,13.24.16h.28v.27c0,1.9-.09,3.78-.13,5.65Zm0,0-.14-5.66c0-1.86-.11-3.7-.13-5.53l.27.27c-4.41.05-8.82.16-13.24.16l-13.24.07.5-.5L213,305.72l-.45-.45c2.18,0,4.36,0,6.55.06l6.58.11Z" style="fill:#ebebeb"></path><path d="M224.27,319.83l-13.12.28-6.66.11c-2.23,0-4.47,0-6.7,0h-.44v-.45l-.06-11.19v-.5h.5l13.24.06c4.41,0,8.83.11,13.24.16h.28v.27c0,1.9-.08,3.78-.13,5.65Zm0,0-.14-5.66c0-1.86-.11-3.7-.13-5.53l.27.27c-4.41,0-8.83.16-13.24.16l-13.24.07.5-.5,0,11.19-.45-.45c2.18,0,4.36,0,6.55.06l6.58.11Z" style="fill:#ebebeb"></path><path d="M253.63,319.83l-13.13.28-6.66.11c-2.22,0-4.46,0-6.69,0h-.44v-.45l0-11.19v-.5h.5l13.24.06c4.41,0,8.83.11,13.24.16h.27v.27c0,1.9-.08,3.78-.13,5.65Zm0,0-.14-5.66c-.05-1.86-.11-3.7-.13-5.53l.27.27c-4.41,0-8.83.16-13.24.16l-13.24.07.5-.5-.06,11.19-.44-.45c2.18,0,4.36,0,6.54.06l6.58.11Z" style="fill:#ebebeb"></path><path d="M453.66,285.36l-13.13.27-6.66.12c-2.22,0-4.46,0-6.69.05h-.45v-.44l-.05-11.19v-.51h.5l13.24.06c4.41,0,8.83.11,13.24.16h.27v.27c0,1.89-.08,3.78-.13,5.65Zm0,0-.14-5.66c0-1.86-.12-3.7-.13-5.53l.27.27c-4.41.05-8.83.16-13.24.16l-13.24.07.5-.5-.06,11.19-.44-.45c2.18,0,4.36,0,6.54,0l6.58.12Z" style="fill:#ebebeb"></path><path d="M438.89,86.89l-13.13.28-6.66.11c-2.22,0-4.46,0-6.69.06H412v-.45l0-11.19v-.5h.51l13.24.06c4.41,0,8.82.12,13.24.17h.27v.27c0,1.9-.09,3.79-.13,5.65Zm0,0-.14-5.65c-.05-1.87-.12-3.71-.14-5.54l.28.27c-4.42,0-8.83.16-13.24.17l-13.24.06.5-.5-.06,11.19-.44-.45c2.18,0,4.35,0,6.54.06l6.58.11Z" style="fill:#ebebeb"></path><path d="M453.66,101l-13.13.28-6.66.11c-2.22,0-4.46,0-6.69.06h-.45V101l-.05-11.19v-.5h.5l13.24.06c4.41,0,8.83.12,13.24.17h.27v.27c0,1.9-.08,3.79-.13,5.65Zm0,0-.14-5.65c0-1.87-.12-3.71-.13-5.54l.27.27c-4.41,0-8.83.16-13.24.17l-13.24.06.5-.5L427.62,101l-.44-.45c2.18,0,4.36,0,6.54.06l6.58.11Z" style="fill:#ebebeb"></path><path d="M87.59,86.89l-13.12.28-6.66.11c-2.23,0-4.47,0-6.7.06h-.44v-.45L60.61,75.7v-.5h.5l13.24.06c4.42,0,8.83.12,13.24.17h.28v.27c0,1.9-.09,3.79-.13,5.65Zm0,0-.14-5.65c0-1.87-.11-3.71-.13-5.54l.27.27c-4.41,0-8.82.16-13.24.17l-13.24.06.5-.5,0,11.19-.45-.45c2.18,0,4.36,0,6.55.06l6.58.11Z" style="fill:#ebebeb"></path><path d="M145.38,210l-13.13.27-6.66.12c-2.22,0-4.46,0-6.69,0h-.45V210l0-11.19v-.51h.5l13.24.06c4.41,0,8.82.11,13.24.16h.27v.27c0,1.89-.08,3.78-.13,5.65Zm0,0-.14-5.66c-.05-1.86-.12-3.7-.13-5.53l.27.27c-4.42.05-8.83.16-13.24.16l-13.24.07.5-.5L119.34,210l-.44-.45c2.18,0,4.36,0,6.54.06l6.58.11Z" style="fill:#ebebeb"></path><polygon points="97.88 355.16 70.54 355.16 54.89 277.15 79.92 265.65 97.88 355.16" style="fill:#dbdbdb"></polygon><polygon points="176.13 355.16 97.88 355.16 79.92 265.65 158.18 265.65 176.13 355.16" style="fill:#ebebeb"></polygon><rect x="41.94" y="313.31" width="41.9" height="85.97" style="fill:#dbdbdb"></rect><polygon points="196.24 399.28 184.79 399.28 167.74 313.31 196.24 313.31 196.24 399.28" style="fill:#dbdbdb"></polygon><rect x="83.84" y="313.31" width="23.02" height="85.97" style="fill:#ebebeb"></rect><rect x="196.24" y="313.31" width="23.02" height="85.97" style="fill:#ebebeb"></rect><rect x="106.86" y="355.16" width="89.38" height="44.12" style="fill:#ebebeb"></rect><rect x="106.86" y="336.09" width="89.38" height="19.25" style="fill:#ebebeb"></rect><path d="M89.48,313.31l8.69-.16,8.69-.11h.27v.27l.1,10.06,0,10.06c0,6.71,0,13.42,0,20.12s0,13.42-.11,20.13-.15,13.41-.3,20.12q-.21-10.07-.29-20.12c-.08-6.71-.09-13.42-.11-20.13s0-13.41,0-20.12l0-10.06.1-10.06.26.26-8.69-.11Z" style="fill:#dbdbdb"></path><path d="M196.24,313.31c.18,6.73.26,13.46.33,20.2l.11,20.19-.1,20.2-.13,10.1-.21,10.1L196,384l-.12-10.1-.1-20.2.1-20.19C196,326.77,196.06,320,196.24,313.31Z" style="fill:#dbdbdb"></path><path d="M196.24,355.16c-7.45.18-14.89.27-22.34.34l-22.35.1-22.34-.1L118,355.38l-11.18-.22L118,355l11.17-.12,22.34-.1,22.35.1C181.35,354.9,188.79,355,196.24,355.16Z" style="fill:#dbdbdb"></path><path d="M196.24,336.09c-7.45.18-14.89.26-22.34.33l-22.35.1-22.34-.1L118,336.3l-11.18-.21,11.18-.21,11.17-.12,22.34-.1,22.35.1C181.35,335.83,188.79,335.91,196.24,336.09Z" style="fill:#dbdbdb"></path><polygon points="57.87 399.28 57.3 406.25 55.98 422.34 49.91 422.34 48.59 406.25 48.02 399.28 57.87 399.28" style="fill:#c7c7c7"></polygon><polygon points="48.02 399.28 57.87 399.28 57.3 406.25 48.59 406.25 48.02 399.28" style="fill:#a6a6a6"></polygon><polygon points="100.28 399.28 99.71 406.25 98.39 422.34 92.32 422.34 91 406.25 90.43 399.28 100.28 399.28" style="fill:#c7c7c7"></polygon><polygon points="90.43 399.28 100.28 399.28 99.71 406.25 91 406.25 90.43 399.28" style="fill:#a6a6a6"></polygon><polygon points="170.62 399.28 170.06 406.25 168.73 422.34 162.67 422.34 161.34 406.25 160.78 399.28 170.62 399.28" style="fill:#c7c7c7"></polygon><polygon points="160.78 399.28 170.62 399.28 170.06 406.25 161.34 406.25 160.78 399.28" style="fill:#a6a6a6"></polygon><polygon points="213.05 399.28 212.48 406.25 211.16 422.34 205.09 422.34 203.77 406.25 203.2 399.28 213.05 399.28" style="fill:#c7c7c7"></polygon><polygon points="213.05 399.28 212.48 406.25 203.77 406.25 203.2 399.28 213.05 399.28" style="fill:#a6a6a6"></polygon><polygon points="425.85 399.81 317.7 399.81 314.22 331.19 429.32 331.19 425.85 399.81" style="fill:#ebebeb"></polygon><polygon points="421.73 339.2 324.55 339.2 326.02 362.18 420.47 362.18 421.73 339.2" style="fill:none;stroke:#dbdbdb;stroke-miterlimit:10"></polygon><polygon points="418.76 368.93 417.73 389.59 327.32 389.59 326.02 368.93 418.76 368.93" style="fill:none;stroke:#dbdbdb;stroke-miterlimit:10"></polygon><polygon points="362.67 352.85 382.12 352.85 382.75 347.95 362.04 347.95 362.67 352.85" style="fill:none;stroke:#dbdbdb;stroke-miterlimit:10"></polygon><polygon points="362.67 381.71 382.12 381.71 382.75 376.81 362.04 376.81 362.67 381.71" style="fill:none;stroke:#dbdbdb;stroke-miterlimit:10"></polygon><polygon points="410.85 399.81 411.9 407.29 414.01 422.31 418.14 422.31 418.14 399.81 410.85 399.81" style="fill:#ebebeb"></polygon><polygon points="410.85 399.81 411.9 407.29 418.14 407.29 418.14 399.81 410.85 399.81" style="fill:#dbdbdb"></polygon><polygon points="332.7 399.81 331.65 407.29 329.54 422.31 325.41 422.31 325.41 399.81 332.7 399.81" style="fill:#ebebeb"></polygon><polygon points="332.7 399.81 331.65 407.29 325.41 407.29 325.41 399.81 332.7 399.81" style="fill:#dbdbdb"></polygon></g><g id="freepik--Shadow--inject-16"><ellipse cx="250" cy="457.86" rx="109.29" ry="14.07" style="fill:#ebebeb"></ellipse></g><g id="freepik--Floor--inject-16"><polygon points="38.37 422.31 91.28 422.06 144.18 421.98 250 421.81 355.82 421.98 408.73 422.06 461.63 422.31 408.73 422.55 355.82 422.64 250 422.81 144.18 422.64 91.28 422.55 38.37 422.31" style="fill:#263238"></polygon></g><g id="freepik--Pictures--inject-16"><polygon points="94.85 125.52 100.5 131.52 94.85 137.26 100.5 143.27 94.85 149.01 100.5 155.02 94.85 160.76 100.5 166.77 94.85 172.52 100.5 178.53 94.85 184.27 100.5 190.28 94.85 196.02 100.5 202.03 106.26 207.68 112.25 202.03 118.01 207.68 124.01 202.03 129.76 207.68 135.76 202.03 141.51 207.68 147.51 202.03 153.26 207.68 159.26 202.03 164.92 196.02 159.26 190.28 164.92 184.27 159.26 178.53 164.92 172.52 159.26 166.77 164.92 160.76 159.26 155.02 164.92 149.01 159.26 143.27 164.92 137.26 159.26 131.52 164.92 125.52 159.26 119.77 164.92 113.77 159.26 108.01 153.51 102.35 147.51 108.01 141.76 102.35 135.76 108.01 130.01 102.35 124.01 108.01 118.25 102.35 112.25 108.01 106.5 102.35 100.5 108.01 94.85 113.77 100.5 119.77 94.85 125.52" style="fill:#37474f"></polygon><rect x="107.93" y="115.83" width="43.91" height="78.38" style="fill:#fff"></rect><path d="M146.33,191.2s-4.74-24.14-6.57-28.11-5-9.31-5-9.31,5.4-8.15,5.79-10.65-2.81-12.15-5.79-14.31-6.19-2.83-9.49-1-8.63,12.73-8.63,12.73l3.41,1.75s-.75,3.58-.5,3.91l5.16,6.91s-4,10.16-4.91,12.07-5.74,26-5.74,26Z" style="fill:#ebebeb"></path><path d="M149.13,191.7h-38.5V118.34h38.5Zm-37.5-1h36.5V119.34h-36.5Z" style="fill:#37474f"></path><polygon points="351.08 169.53 355.43 174.17 351.08 178.61 355.43 183.24 351.08 187.87 355.44 192.29 351.08 196.93 355.44 201.37 351.08 206 355.44 210.45 359.88 214.81 364.51 210.45 368.94 214.81 373.58 210.45 378.01 214.81 382.65 210.45 387.09 214.81 391.72 210.45 396.16 214.81 400.79 210.45 405.15 206 400.79 201.37 405.15 196.93 400.79 192.29 405.15 187.87 400.79 183.23 405.15 178.61 400.78 174.17 405.15 169.53 400.78 165.11 405.15 160.47 400.78 156.03 396.34 151.67 391.71 156.03 387.28 151.67 382.65 156.03 378.21 151.67 373.58 156.03 369.13 151.67 364.51 156.03 360.07 151.67 355.43 156.03 351.08 160.47 355.43 165.11 351.08 169.53" style="fill:#455a64"></polygon><rect x="360.84" y="162.19" width="34.55" height="42.1" transform="translate(756.23 366.48) rotate(180)" style="fill:#263238"></rect><rect x="362.25" y="163.75" width="31.73" height="38.98" transform="translate(756.23 366.48) rotate(180)" style="fill:#fff"></rect><path d="M394,202.73v-3.39l-12.38-6.63L380.55,187l2.4-1.34-.47,5s3.81-3.22,4.22-5.85.46-10.54-.06-11.6-7.91-6.67-9.26-6.44-7.61,5.68-8.31,7-.06,11.12,0,11.51,3.22,5.06,3.22,5.06l.53-5.06,2.81,1.66-.82,5.69-12.56,6.09v4Z" style="fill:#dbdbdb"></path><rect x="333.76" y="81.11" width="66.25" height="57.23" transform="translate(476.61 -257.16) rotate(90)" style="fill:#F5AD35"></rect><rect x="343.72" y="89.72" width="46.33" height="40.02" transform="translate(476.61 -257.16) rotate(90)" style="fill:#fff"></rect><path d="M379.68,132.89s-2.25-8.41-3.39-10.92c-.89-2-3.76-6.45-3.76-6.45s6-6.31,5.65-11.64c-.25-3.48-4.35-11.55-8.24-12.38s-11.16,2.22-12.47,4.73-3.38,11.13-3.38,11.13h3.38s-.29,3.82.41,4.76,4,4.42,4,4.42-2.65,2.65-3.34,3.62-3.62,12.73-3.62,12.73Z" style="fill:#ebebeb"></path><rect x="266.57" y="204.14" width="81.04" height="53" transform="translate(537.73 -76.45) rotate(90)" style="fill:#F5AD35"></rect><g style="opacity:0.2"><rect x="266.57" y="204.14" width="81.04" height="53" transform="translate(537.73 -76.45) rotate(90)"></rect></g><g style="opacity:0.2"><rect x="273.36" y="210.63" width="67.46" height="40.02" transform="translate(537.73 -76.45) rotate(90)"></rect></g><rect x="276.9" y="213.73" width="60.38" height="33.83" transform="translate(537.73 -76.45) rotate(90)" style="fill:#fff"></rect><path d="M315.7,260.84H295.08s2.29-15.41,2.46-17.17,4.4-9.49,4.57-10.37-4.21-7.2-4.8-8.61.59-11.36,2.11-13.93,11.24-4.45,12.88-3.52,6.79,14.88,6.79,14.88l-2,.7s-.23,4.1-.58,4.57-6.27,4.92-6.3,5.62,6.18,12,6.42,13.12-2.82,6.56-2.82,6.56Z" style="fill:#dbdbdb"></path><rect x="188.92" y="49.78" width="70.47" height="53" transform="translate(300.43 -147.87) rotate(90)" style="fill:#F5AD35"></rect><g style="opacity:0.2"><path d="M244.66,105.23h-41V47.33h41Zm-40-1h39V48.33h-39Z"></path></g><rect x="199.24" y="59.36" width="49.82" height="33.83" transform="translate(300.43 -147.87) rotate(90)" style="fill:#fff"></rect><path d="M240.14,101.19s-2.88-13.62-4.4-14.89c-1.67-1.39-8-3.44-8-3.44l-.41-4.28,5.11.79s.86-3.82,1.27-6.45-.41-10.64-.94-11.69-4.86-6-9-6c-3.8,0-7.84,5.22-8.54,6.56s-1.3,11.36-1.24,11.74,1.66,6.51,1.66,6.51l5.6-1.36-.29,4s-7.45,2.77-9.35,4.54c-1.18,1.1-3.2,13.9-3.2,13.9Z" style="fill:#ebebeb"></path><rect x="348.33" y="226.23" width="37.11" height="38.52" transform="translate(612.37 -121.4) rotate(90)" style="fill:#37474f"></rect><circle cx="366.88" cy="245.49" r="14.84" style="fill:#fff"></circle><path d="M359.14,258.15a14.85,14.85,0,0,0,13.5,1l-3.14-8.29s6.29-2.9,6.5-4.16-3-10.54-4.31-11.81-10,.5-10.53,2.05-1.56,8.27-1.06,9.19,1.42,3.39,1.42,3.39Z" style="fill:#ebebeb"></path><rect x="145.72" y="57.96" width="34.18" height="35.48" transform="translate(238.51 -87.11) rotate(90)" style="fill:#c7c7c7"></rect><rect x="150.44" y="64.07" width="24.75" height="23.26" transform="translate(325.62 151.4) rotate(180)" style="fill:#fff"></rect><path d="M172.3,87.33a12.68,12.68,0,0,0-2-2.72l-5.51-3.55-.23-2.56s2.19-.65,2.75-1.49c.81-1.19,1.06-5.38,1-6.54s-3.66-4.1-5.46-4.12S157.19,68.54,157,70s0,6.35,1.08,7.21a11.76,11.76,0,0,0,2.75,1.43L160.7,81s-5.12,3-5.73,3.18-2.11,3.15-2.11,3.15Z" style="fill:#ebebeb"></path><rect x="267.1" y="126.85" width="47.81" height="49.63" transform="translate(442.67 -139.33) rotate(90)" style="fill:#37474f"></rect><rect x="273.69" y="135.4" width="34.61" height="32.53" transform="translate(582 303.33) rotate(180)" style="fill:#fff"></rect><rect x="273.69" y="135.4" width="34.62" height="32.52" style="fill:#fff"></rect><path d="M286.54,159.54l-2.46,8.39h15.83l-1.65-9.42s1.4-2.86,2.1-3.9.29-9.2-.2-11.1-10.69-5-12.36-3.7-6.63,12.07-6.52,13.63S286.54,159.54,286.54,159.54Z" style="fill:#F5AD35"></path><rect x="126.31" y="215.68" width="42.05" height="43.65" transform="translate(384.83 90.17) rotate(90)" style="fill:#c7c7c7"></rect><rect x="132.42" y="222.02" width="29.82" height="30.96" transform="translate(384.83 90.17) rotate(90)" style="fill:#263238"></rect><path d="M140.41,247.92a44.83,44.83,0,0,0-1.5,4.5h16.32a43.93,43.93,0,0,0-1.75-5.83c-.51-.72-2.79-4.13-2.79-4.13s2.76-1.1,3.27-1.79a14.41,14.41,0,0,0,1.1-3.17l1.68-.33s-1.52-6.36-2.49-8.2-6.3-4.09-9.17-3.48-6.78,5.16-7,7.72c-.27,3.92,5.07,10,5.07,10S141.06,246.48,140.41,247.92Z" style="fill:#fff"></path><rect x="178.07" y="129.6" width="66.25" height="57.23" transform="translate(369.41 -52.97) rotate(90)" style="fill:#263238"></rect><ellipse cx="211.19" cy="158.22" rx="21.75" ry="28.16" style="fill:#ebebeb"></ellipse><path d="M221.65,174.38a44.73,44.73,0,0,1,2.13,6.79,18.48,18.48,0,0,1-12.59,5.21,18.24,18.24,0,0,1-11.7-4.42,53.58,53.58,0,0,1,1.9-5.51c1-2.22,4.28-7.35,4.28-7.35s-6.87-7.2-6.44-13.29c.28-4,5-13.17,9.41-14.13s10.18,1.43,11.67,4.29,5.35,12.24,5.35,12.24l-2.8,1.57s.33,4.36-.46,5.43-4.56,5-4.56,5S220.86,173.27,221.65,174.38Z" style="fill:#fff"></path><path d="M268.27,68.22h0a3,3,0,0,1,0,4.28h0a3,3,0,0,0,0,4.28h0a3,3,0,0,1,0,4.27h0a3,3,0,0,0,0,4.28h0a3,3,0,0,1,0,4.27h0a3,3,0,0,0,0,4.28h0a3,3,0,0,1,0,4.27h0a3,3,0,0,0,0,4.28h0a3,3,0,0,1,0,4.28h0a3,3,0,0,0,0,4.27h0a3,3,0,0,0,4.27,0h0a3,3,0,0,1,4.28,0h0a3,3,0,0,0,4.28,0h0a3,3,0,0,1,4.28,0h0a3,3,0,0,0,4.28,0h0a3,3,0,0,1,4.27,0h0a3,3,0,0,0,4.28,0h0a3,3,0,0,1,4.27,0h0a3,3,0,0,0,4.28,0h0a3,3,0,0,1,4.28,0h0a3,3,0,0,0,4.27,0h0a3,3,0,0,1,4.28,0h0a3,3,0,0,0,4.27,0h0a3,3,0,0,0,0-4.27h0a3,3,0,0,1,0-4.28h0a3,3,0,0,0,0-4.28h0a3,3,0,0,1,0-4.27h0a3,3,0,0,0,0-4.28h0a3,3,0,0,1,0-4.27h0a3,3,0,0,0,0-4.28h0a3,3,0,0,1,0-4.27h0a3,3,0,0,0,0-4.28h0a3,3,0,0,1,0-4.28h0a3,3,0,0,0,0-4.28h0a3,3,0,0,1,0-4.28h0a3,3,0,0,0,0-4.27h0a3,3,0,0,0-4.27,0h0a3,3,0,0,1-4.28,0h0a3,3,0,0,0-4.27,0h0a3,3,0,0,1-4.28,0h0a3,3,0,0,0-4.28,0h0a3,3,0,0,1-4.27,0h0a3,3,0,0,0-4.28,0h0a3,3,0,0,1-4.27,0h0a3,3,0,0,0-4.28,0h0a3,3,0,0,1-4.28,0h0a3,3,0,0,0-4.28,0h0a3,3,0,0,1-4.28,0h0a3,3,0,0,0-4.27,0h0a3,3,0,0,0,0,4.27h0a3,3,0,0,1,0,4.28h0A3,3,0,0,0,268.27,68.22Z" style="fill:#455a64"></path><rect x="276.95" y="64.05" width="38.35" height="38.35" transform="translate(592.24 166.44) rotate(180)" style="fill:#fff"></rect><path d="M307.09,83.16l-2,.71s-.24,4.1-.6,4.57-5.22,4.91-5.25,5.62a36.38,36.38,0,0,0,3.08,8.33h-16c1.28-3,3.64-7.39,3.77-8,.18-.88-4.22-7.2-4.81-8.61s.59-11.36,2.11-13.94,11.25-4.44,12.89-3.51S307.09,83.16,307.09,83.16Z" style="fill:#37474f"></path></g><g id="freepik--Lamp--inject-16"><rect x="417.18" y="417.37" width="43.42" height="4.94" style="fill:#455a64"></rect><rect x="436.32" y="195.68" width="5.15" height="221.69" style="fill:#455a64"></rect><rect x="436.32" y="195.68" width="5.15" height="26.07" style="fill:#263238"></rect><polygon points="466.12 210.78 411.65 210.78 415.61 197.77 415.75 197.31 427.27 159.45 450.51 159.45 462.03 197.31 462.03 197.32 462.16 197.75 466.12 210.78" style="fill:#F5AD35"></polygon><path d="M429.2,168.2a.37.37,0,0,1-.74,0,.37.37,0,1,1,.74,0Zm6.34-.37a.38.38,0,0,0-.37.37.37.37,0,0,0,.37.36.36.36,0,0,0,.36-.36A.37.37,0,0,0,435.54,167.83Zm6.71,0a.37.37,0,0,0-.37.37.37.37,0,0,0,.73,0A.37.37,0,0,0,442.25,167.83Zm6.7,0a.37.37,0,0,0-.36.37.37.37,0,0,0,.73,0A.37.37,0,0,0,449,167.83Zm-16.77-4.7a.37.37,0,1,0,.37.37A.37.37,0,0,0,432.18,163.13Zm6.71,0a.37.37,0,0,0,0,.74.37.37,0,0,0,0-.74Zm6.71,0a.37.37,0,1,0,.37.37A.38.38,0,0,0,445.6,163.13Zm-23.48,14.46a.36.36,0,0,0-.36.36.37.37,0,1,0,.73,0A.36.36,0,0,0,422.12,177.59Zm6.71,0a.37.37,0,0,0-.37.36.37.37,0,0,0,.74,0A.37.37,0,0,0,428.83,177.59Zm6.71,0a.37.37,0,0,0-.37.36.38.38,0,0,0,.37.37.37.37,0,0,0,.36-.37A.36.36,0,0,0,435.54,177.59Zm6.71,0a.36.36,0,0,0-.37.36.37.37,0,1,0,.73,0A.36.36,0,0,0,442.25,177.59Zm6.7,0a.36.36,0,0,0-.36.36.37.37,0,1,0,.73,0A.36.36,0,0,0,449,177.59Zm6.71,0a.36.36,0,0,0-.36.36.37.37,0,0,0,.36.37A.38.38,0,0,0,456,178,.37.37,0,0,0,455.66,177.59Zm-30.18-4.7a.37.37,0,1,0,.36.36A.36.36,0,0,0,425.48,172.89Zm6.7,0a.37.37,0,0,0,0,.73.37.37,0,1,0,0-.73Zm6.71,0a.37.37,0,0,0,0,.73.37.37,0,1,0,0-.73Zm6.71,0a.37.37,0,1,0,.37.36A.37.37,0,0,0,445.6,172.89Zm6.71,0a.37.37,0,1,0,0,.73.37.37,0,0,0,0-.73Zm-30.19,14.45a.37.37,0,1,0,.37.37A.36.36,0,0,0,422.12,187.34Zm6.71,0a.37.37,0,1,0,.37.37A.37.37,0,0,0,428.83,187.34Zm6.71,0a.37.37,0,1,0,0,.73.37.37,0,0,0,0-.73Zm6.71,0a.37.37,0,1,0,0,.73.37.37,0,0,0,0-.73Zm6.7,0a.37.37,0,1,0,.37.37A.36.36,0,0,0,449,187.34Zm6.71,0a.37.37,0,0,0,0,.73.37.37,0,1,0,0-.73Zm-30.18-4.7a.37.37,0,0,0-.37.37.37.37,0,0,0,.73,0A.37.37,0,0,0,425.48,182.64Zm6.7,0a.37.37,0,0,0-.36.37.37.37,0,0,0,.73,0A.37.37,0,0,0,432.18,182.64Zm6.71,0a.37.37,0,0,0-.36.37.36.36,0,0,0,.36.36.37.37,0,0,0,.37-.36A.38.38,0,0,0,438.89,182.64Zm6.71,0a.38.38,0,0,0-.37.37.37.37,0,0,0,.74,0A.38.38,0,0,0,445.6,182.64Zm6.71,0a.38.38,0,0,0-.37.37.37.37,0,0,0,.37.36.36.36,0,0,0,.36-.36A.37.37,0,0,0,452.31,182.64ZM415.75,197.3l-.14.47a.34.34,0,0,0,.17-.31A.32.32,0,0,0,415.75,197.3Zm6.37-.21a.37.37,0,1,0,.37.37A.37.37,0,0,0,422.12,197.09Zm6.71,0a.37.37,0,1,0,.37.37A.38.38,0,0,0,428.83,197.09Zm6.71,0a.37.37,0,0,0,0,.74.37.37,0,0,0,0-.74Zm6.71,0a.37.37,0,1,0,.36.37A.37.37,0,0,0,442.25,197.09Zm6.7,0a.37.37,0,1,0,.37.37A.37.37,0,0,0,449,197.09Zm6.71,0a.37.37,0,0,0,0,.74.37.37,0,0,0,0-.74Zm6.37.23a.59.59,0,0,0,0,.14.35.35,0,0,0,.15.29Zm-43.26-4.92a.37.37,0,0,0-.37.36.37.37,0,0,0,.74,0A.37.37,0,0,0,418.77,192.4Zm6.71,0a.36.36,0,0,0-.37.36.37.37,0,1,0,.73,0A.36.36,0,0,0,425.48,192.4Zm6.7,0a.36.36,0,0,0-.36.36.37.37,0,1,0,.73,0A.36.36,0,0,0,432.18,192.4Zm6.71,0a.36.36,0,0,0-.36.36.37.37,0,0,0,.36.37.38.38,0,0,0,.37-.37A.37.37,0,0,0,438.89,192.4Zm6.71,0a.37.37,0,0,0-.37.36.37.37,0,0,0,.74,0A.37.37,0,0,0,445.6,192.4Zm6.71,0a.37.37,0,0,0-.37.36.38.38,0,0,0,.37.37.37.37,0,0,0,.36-.37A.36.36,0,0,0,452.31,192.4Zm6.71,0a.36.36,0,0,0-.37.36.37.37,0,1,0,.73,0A.36.36,0,0,0,459,192.4Zm-43.61,14.45a.37.37,0,0,0,0,.73.37.37,0,1,0,0-.73Zm6.71,0a.37.37,0,0,0,0,.73.37.37,0,1,0,0-.73Zm6.71,0a.37.37,0,1,0,.37.36A.37.37,0,0,0,428.83,206.85Zm6.71,0a.37.37,0,1,0,0,.73.37.37,0,0,0,0-.73Zm6.71,0a.37.37,0,1,0,.36.36A.36.36,0,0,0,442.25,206.85Zm6.7,0a.37.37,0,0,0,0,.73.37.37,0,1,0,0-.73Zm6.71,0a.37.37,0,0,0,0,.73.37.37,0,1,0,0-.73Zm6.71,0a.37.37,0,1,0,.37.36A.37.37,0,0,0,462.37,206.85Zm-43.6-4.7a.37.37,0,1,0,.37.37A.37.37,0,0,0,418.77,202.15Zm6.71,0a.37.37,0,1,0,0,.73.37.37,0,0,0,0-.73Zm6.7,0a.37.37,0,1,0,.37.37A.36.36,0,0,0,432.18,202.15Zm6.71,0a.37.37,0,0,0,0,.73.37.37,0,1,0,0-.73Zm6.71,0a.37.37,0,1,0,.37.37A.37.37,0,0,0,445.6,202.15Zm6.71,0a.37.37,0,1,0,0,.73.37.37,0,0,0,0-.73Zm6.71,0a.37.37,0,1,0,0,.73.37.37,0,0,0,0-.73Z" style="fill:#fff"></path></g><g id="freepik--Plant--inject-16"><path d="M77.15,335a70.4,70.4,0,0,1,1.64-11.57,25.8,25.8,0,0,1,4.13-9.75,12.38,12.38,0,0,1,8.1-5,11.28,11.28,0,0,1,8.52,3,40.81,40.81,0,0,1,7.3,8.93,108.46,108.46,0,0,1,6.31,11c.06.12-.13.23-.19.1a69.65,69.65,0,0,0-5.64-9.23,57.7,57.7,0,0,0-6.5-7.87c-2.17-2.12-4.94-4.11-8.09-4.21a10,10,0,0,0-7.93,4.08,24.34,24.34,0,0,0-4,9.37,70.46,70.46,0,0,0-1.63,11c-.62,7.62-.78,15.28-1,22.92q-.14,6.48-.19,13L78,377.31a39.47,39.47,0,0,1-.25,6.34c-.07.42-.77.38-.84,0a37.58,37.58,0,0,1-.29-6q0-3.12-.07-6.23-.06-6.06,0-12.11C76.5,351.19,76.59,343.06,77.15,335Z" style="fill:#263238"></path><path d="M88,329.23c.4-2.15,1.13-5,2.36-6.63,2.2-3,4.58-1.69,2.38,1.63a19.74,19.74,0,0,0-3.09,8.19s3.7,5.29,8.18,7.9c-.19-2-.77-5.17-.37-8.19.86-6.54,4.81-6.17,3.84-1a45,45,0,0,0-.9,10.51,22.34,22.34,0,0,0,4.78,2.35c-.26-.76-.53-1.67-.83-2.78-1.59-5.86,2.32-7.69,2.45-4.39a46.21,46.21,0,0,0,1.52,8.32c2.15.72,3.92,1.21,5,1.59a18.34,18.34,0,0,1,7.34,5,23.17,23.17,0,0,0,5-6.47,82.33,82.33,0,0,0-6.52-5c-5.62-4-3.67-9,.79-5.87,3.22,2.25,5.71,6.42,6.84,8.56a34.76,34.76,0,0,0,2.55-11.71c-4.41-4.15-15.33-9.92-12-9.92,3,0,9.59,4.34,12,6a30.93,30.93,0,0,0-.37-3.41c-4.16-2.72-17.68-7-15.52-8.18,2.36-1.34,11.79,3,14.64,4.41a17,17,0,0,0-2.5-5.18c-5.74-7.69-16.11-10.34-20.63-8.88-3.2,1-2.26,9.16-3,8.88C89.15,309.81,83.3,313.47,88,329.23Zm31.51-.89c.91-1.1,5.13,2.14,3.91,3.91S118.36,329.75,119.54,328.34Zm-22-6.92c1.11.71-.53,4.81-2.25,3.57C93.8,323.93,96.38,320.71,97.5,321.42Z" style="fill:#F5AD35"></path><path d="M99.18,322.68c.58-1.15,1.18-2.29,1.85-3.39a19.8,19.8,0,0,1,2.12-3.08c-.18-.23-.36-.46-.55-.68s.05-.22.13-.13c.22.25.42.5.63.75a.17.17,0,0,1,.09.11c.8.95,1.55,1.93,2.26,2.93a34.55,34.55,0,0,1,3.73,1.08c1.26.42,2.51.86,3.74,1.38.13.05.06.26-.07.21-1.21-.54-2.44-1.06-3.7-1.49s-2.4-.71-3.61-1.05c.4.56.78,1.11,1.15,1.68a44.54,44.54,0,0,1,6.6,2.69c2.23,1.06,4.38,2.29,6.52,3.53.12.07,0,.26-.12.18a70.85,70.85,0,0,0-6.48-3.35c-2.06-1-4.2-1.76-6.29-2.68,5.25,8.19,8.4,17.64,12.61,26.39.06.13-.14.23-.2.1-1.28-3.06-2.76-6.05-4.16-9.07-1.25-2.71-2.48-5.44-3.74-8.15-.37-.79-.75-1.58-1.13-2.37.23,4.37.14,8.82.85,13.15a.11.11,0,1,1-.21,0c-.3-4.67-1.13-9.28-1.09-14a.14.14,0,0,1,0-.06c-.89-1.79-1.84-3.55-2.86-5.26-1.74,4.09-3.57,8.25-4.38,12.64,0,.14-.25.08-.21-.06,1.18-4.41,2.28-8.82,4.4-12.89a47.77,47.77,0,0,0-3.7-5.33c-.58,1.09-1.33,2.12-2,3.15s-1.28,2-1.88,3.09a44,44,0,0,0-3.28,6.94c0,.13-.27.06-.21-.06C97,327.28,98,324.94,99.18,322.68Z" style="fill:#263238"></path><path d="M57.81,332.64c3.36-3.38,7.28-7.81,12.48-7.81,5,0,8.72,4.06,10.85,8.23,2.22,4.36,3,9.31,3.65,14.11a174,174,0,0,1,1.33,17.35c.09,3.23.08,6.45,0,9.67a63.76,63.76,0,0,1-.74,9.76c-.1.52-.93.54-1,0-.15-2.71,0-5.43,0-8.15s0-5.35-.12-8c-.2-5.4-.6-10.8-1.23-16.17-.55-4.69-1-9.52-2.4-14.05-1.27-4.09-3.64-8.77-7.78-10.56-5.66-2.45-11.18,2-14.89,5.8C57.88,332.87,57.71,332.74,57.81,332.64Z" style="fill:#263238"></path><path d="M40.62,340.18h0c0,.69.07,1.37.11,2A12.2,12.2,0,0,1,46.25,340c4.78-.51,4.48,3.12,1.29,3.27A18.28,18.28,0,0,0,41,344.54c.78,6.31,2.51,11.39,2.77,11.45a91.48,91.48,0,0,0,12.63-1.59c-1.18-2.54-3.89-5.9-2.51-6.17s2.89,2.72,3.65,5.94a60.91,60.91,0,0,0,9.19-2.53c-2.11-1.82-5.36-4.09-4.11-5.05s3.82,2.22,5.36,4.54a18.69,18.69,0,0,0,4-2.21c-2.83-4.17-9.73-5-8.83-8s7.36,1.16,10.26,6.73c3.41-3.53,4.4-8.53,4-12.8-3-.34-8.67.28-8.26-1.85s4.54-1.72,7.92-.48a11.82,11.82,0,0,0-2-4.7c-3.12-4-12.66,1.1-12.66,1.1s1-9.6-2.62-11.25c-2.1-1-5.8-.95-9.52,1.24,2.09.17,4.61.83,5.62,2.27,1.29,1.85-.75,2.85-2,2-.91-.6-2.62-2.5-5.7-2.75a20.16,20.16,0,0,0-4.45,5.4,13.08,13.08,0,0,1,11.17.2c4.14,2.05,1.83,6.35-1.73,4.68s-7-3.31-10.73-2.36A26.77,26.77,0,0,0,40.59,339a18.62,18.62,0,0,1,6.13-2.94c4.11-1.08,5.35,1.38.83,1.84A18.13,18.13,0,0,0,40.62,340.18Zm5-6.6c-.29-1.33,2.63-1.71,3.11-.63C49.15,333.87,45.9,334.91,45.63,333.58ZM70.58,341c.28-.73,2.23.1,2,1C72.39,343.18,70.32,341.69,70.58,341ZM56.8,345.64c1.43-.57,3.65,3,2.1,3.77S55.64,346.1,56.8,345.64Z" style="fill:#F5AD35"></path><path d="M44.31,355.27c2.14-3.59,4.26-7.19,6.51-10.71q1.57-2.46,3.29-4.82c-.17,0-.34-.09-.51-.12l-.85-.17c-.66-.11-1.33-.2-2-.27s-1.25-.1-1.88-.11a9,9,0,0,0-2,.11.06.06,0,1,1,0-.11c.67,0,1.35-.06,2-.07s1.3,0,1.95.05a15.81,15.81,0,0,1,1.82.19l1,.17a5.8,5.8,0,0,1,.6.13q1.74-2.4,3.62-4.69a43,43,0,0,0-11.74-3.75c-.07,0,0-.12,0-.1a39.61,39.61,0,0,1,11.9,3.61l2.07-2.52c.77-.93,1.6-1.84,2.31-2.83,0-.06.14,0,.08.06-1,1-1.85,2.19-2.72,3.33,0,0,0,0,0,0a40.73,40.73,0,0,1,4.36,3.5c1.43,1.27,2.82,2.57,4.17,3.92.05,0,0,.12-.07.07-1.34-1.32-2.72-2.59-4.17-3.8s-3-2.31-4.43-3.5c0,0,0,0,0,0l-1,1.31-.51.66s0,0,0,.05L56.46,337a17.49,17.49,0,0,1,1.66,3c.48,1,.9,2.06,1.28,3.11a44.68,44.68,0,0,1,1.79,6.72c0,.06-.09.1-.1,0a39.87,39.87,0,0,0-2-6.59c-.42-1.09-.89-2.16-1.38-3.23s-1-1.9-1.41-2.88l-1.43,1.93-.4.57a.07.07,0,0,1,0,.1h0c-1.47,2.05-2.87,4.16-4.23,6.29a1.7,1.7,0,0,1,.18.46c.09.26.17.52.25.78.15.53.27,1.06.37,1.6s.17,1,.22,1.52a14.25,14.25,0,0,0,.12,1.74.05.05,0,1,1-.1,0,5.91,5.91,0,0,0-.12-1.62c-.08-.55-.18-1.1-.31-1.64s-.25-1-.39-1.47c-.08-.24-.15-.49-.24-.73s-.1-.26-.15-.39c-.63,1-1.27,2-1.89,3l-3.69,6C44.41,355.46,44.25,355.37,44.31,355.27Z" style="fill:#263238"></path><path d="M77.37,382.79c.06-2,.38-4.08.6-6.1s.45-4.06.66-6.09a92.48,92.48,0,0,1,1.57-11.74A17.13,17.13,0,0,1,85,350.08a7.79,7.79,0,0,1,4.69-2.24,8.06,8.06,0,0,1,5,1.53,17.57,17.57,0,0,1,4.19,4.41,43.07,43.07,0,0,1,3.26,5.3c0,.07-.07.11-.11.05a27.12,27.12,0,0,0-7.06-7.91,8.33,8.33,0,0,0-4.45-1.86,6,6,0,0,0-4.31,1.73,16.16,16.16,0,0,0-4.56,8.06A80.69,80.69,0,0,0,79.84,370q-.44,3.22-.85,6.45c-.28,2.13-.46,4.33-.91,6.43A.36.36,0,0,1,77.37,382.79Z" style="fill:#263238"></path><path d="M87.36,367a11.22,11.22,0,0,0,2.21,2.26c-.33-2-.74-5.5.26-7.38,1.56-2.91,3.4-1.46,2.47,1.07a20.85,20.85,0,0,0-1.5,7.18,31.06,31.06,0,0,0,6.75,3.18,11.23,11.23,0,0,1-.22-3.47c.31-3.11,2.69-3.05,2.07.18a19.4,19.4,0,0,0-.32,3.81,70.53,70.53,0,0,0,10.51,2.37,30.37,30.37,0,0,0,4.35-7.75c-2.53-.63-7.66-.78-7.55-2.59.15-2.43,5.12-.56,8,1.21a19.27,19.27,0,0,0,.88-6.56,32.59,32.59,0,0,0-7-1.15c-5.22-.46-5-3.41-1.18-3.35,2.79.06,6.32,1.76,8,2.65-1.09-7.1-6.5-11.64-10.84-11.82-7.3-.29-4.67,8.79-4.67,8.79s-4.94-3.48-9.61-3.39S82.37,360.07,87.36,367Zm19.49-13.12c-.16-1,3.09-1.27,3.26,0C110.31,355.4,107,354.93,106.85,353.89Zm5.24,10.65c-.07-.67,1.34-.78,1.66.06C114,365.14,112.15,365.2,112.09,364.54Zm-17.52.62c1.1.16,1.72,4.09-.17,4C93,369.11,93.64,365,94.57,365.16Z" style="fill:#F5AD35"></path><path d="M96.09,369.53c.18-.49.34-1,.5-1.49-.14.51-.27,1-.36,1.53C96.21,369.67,96.05,369.63,96.09,369.53Z" style="fill:#263238"></path><path d="M98,363.21c.34-1,.72-2,1.11-3,.21-.52.43-1,.66-1.57a7,7,0,0,1,.65-1.31,11.3,11.3,0,0,1-.59-1.28,0,0,0,0,1,.07,0,14.59,14.59,0,0,1,1.42,2.21c.2.34.4.69.59,1a10.15,10.15,0,0,1,1.23.19c.44.08.88.17,1.31.27s.87.19,1.3.3.86.24,1.29.31c.11,0,.06.18,0,.14a7.88,7.88,0,0,0-1.37-.36c-.42-.09-.84-.16-1.26-.22s-.85-.12-1.28-.16l-1-.08.52.92.08.15a4.18,4.18,0,0,1,1,.12l1.13.22c.76.17,1.51.35,2.27.56,1.57.44,3.13.94,4.69,1.45.09,0,0,.16-.05.13a45.81,45.81,0,0,0-4.72-1.3l-2.24-.5-1.13-.24a6.42,6.42,0,0,1-.87-.19q1.22,2.22,2.26,4.53c1.51,3.35,2.78,6.79,4.08,10.23,0,.09-.1.14-.13.06a91.44,91.44,0,0,0-4.35-10l-.88-1.77c0,.12-.06.24-.08.36-.07.4-.15.81-.21,1.22-.14.81-.28,1.62-.4,2.44a28.05,28.05,0,0,0-.59,5.07c0,.11-.16.1-.14,0,.13-.81.13-1.65.18-2.47s.12-1.71.22-2.56.2-1.63.33-2.45c.07-.4.14-.81.22-1.22a2.38,2.38,0,0,1,.22-.88c-.42-.86-.85-1.72-1.28-2.57s-.81-1.6-1.23-2.4c-.18-.34-.37-.68-.56-1a9.21,9.21,0,0,1-.48,1.23c-.19.46-.38.92-.56,1.38-.42,1-.81,2.05-1.2,3.08-.55,1.45-1.16,2.95-1.62,4.47C97.14,366.2,97.52,364.68,98,363.21Z" style="fill:#263238"></path><path d="M96.59,368c0-.12.07-.23.1-.35C96.66,367.81,96.62,367.92,96.59,368Z" style="fill:#263238"></path><polygon points="65.17 378.84 65.68 389.7 67 417.7 95.89 417.7 97.21 389.7 97.72 378.84 65.17 378.84" style="fill:#37474f"></polygon><polygon points="65.17 378.84 65.68 389.7 97.21 389.7 97.72 378.84 65.17 378.84" style="fill:#263238"></polygon><rect x="63.12" y="374.45" width="36.66" height="8.78" transform="translate(162.89 757.68) rotate(180)" style="fill:#37474f"></rect><rect x="88.48" y="417.7" width="5.07" height="4.6" style="fill:#37474f"></rect><rect x="88.48" y="417.7" width="5.07" height="2.3" style="fill:#263238"></rect><rect x="69.34" y="417.7" width="5.07" height="4.6" style="fill:#37474f"></rect><rect x="69.34" y="417.7" width="5.07" height="2.3" style="fill:#263238"></rect></g><g id="freepik--Character--inject-16"><path d="M218.58,463c1.88.61,55.35-.09,57.37-1.41.78-.49,1.22-52.57,1.22-52.57l-35.77.36,1.35,34.84s-20.35,9.42-22.41,11.11S216.71,462.4,218.58,463Z" style="fill:#eb9481"></path><path d="M234.65,447.88c.14,0,.21-.08.22-.12Z" style="fill:#F5AD35"></path><path d="M218.59,463c1.87.6,55.34-.09,57.36-1.41.27-.17.49-6.45.68-14.61-7.83,2.77-39.23,9.27-45.71,8.77-5.83-.45-.55-5.15,1-6.39-5.21,2.5-10.54,5.15-11.53,6C218.29,457,216.71,462.4,218.59,463Z" style="fill:#F5AD35"></path><path d="M276.63,447c-.19,8.16-.41,14.44-.68,14.61-.8.52-9.58.94-20,1.23l11.35-13.27C271.34,448.57,274.7,447.66,276.63,447Z" style="opacity:0.1"></path><path d="M288.15,255s-8,90.36-9.34,97.25c-.3,1.57-.49,10.11-.61,21.09-.28,23.95-.12,67.15-.12,67.15H240.39s1.12-74.85,2.79-88.62S255.51,255,255.51,255Z" style="fill:#263238"></path><path d="M242.09,433.92c5.88-.13,4.19-.17,10.08-.23,2.88,0,21.79-.19,24.48.25a.06.06,0,0,1,0,.12c-2.69.45-21.6.28-24.48.25-5.89-.05-4.2-.1-10.08-.22A.09.09,0,0,1,242.09,433.92Z" style="fill:#37474f"></path><path d="M270.92,391.13l.12-16.4c0-5.3,0-10.6.29-15.89.51-10.71,2.68-21.24,4.22-31.83s2.84-21.23,4-31.88c1.31-11.94,2.46-23.9,3.69-35.85,0-.08.14-.08.13,0-1.78,21.34-3.76,42.67-6.71,63.89q-1.11,7.9-2.41,15.79c-.88,5.32-1.76,10.64-2.17,16s-.48,10.55-.54,15.83q-.07,8.19-.16,16.39c-.12,12.14-.23,30.82-.35,42.95a.19.19,0,0,1-.37,0C270.76,419.32,270.84,402,270.92,391.13Z" style="fill:#37474f"></path><path d="M296.09,255s-16,90.36-17.28,97.25c-.3,1.57-.49,10.11-.61,21.09v0L260.22,255Z" style="fill:#37474f"></path><path d="M263.71,469c1.93.42,55.1-5.27,57-6.77.73-.56-3.7-52.45-3.7-52.45l-35.58,3.7L286,448.05s-19.38,11.28-21.28,13.16S261.79,468.59,263.71,469Z" style="fill:#eb9481"></path><path d="M278.29,452.45c.14-.05.21-.1.21-.14Z" style="fill:#F5AD35"></path><path d="M263.71,469c1.93.43,55.1-5.27,57-6.77.26-.2-.14-6.95-.76-15.55-8.32,3.7-37.75,12.81-44.11,12.94-4.4.09-2.76-2.83-1.1-4.87-4.63,2.8-9.11,5.59-10,6.44C262.86,463.07,261.79,468.59,263.71,469Z" style="fill:#F5AD35"></path><path d="M283.54,442.52l37.65-1.6s-10.27-82.64-10.46-87.71c-.29-7.56-3.91-38.72-7-63.95,0,0,5.77-13.66-5-34.3H255.48s2.9,19.64,7.86,32.09a57.38,57.38,0,0,1,9.63,4.39s4.3,56.26,4.47,63.28C277.75,368.59,283.54,442.52,283.54,442.52Z" style="fill:#263238"></path><path d="M284.54,435.62c5.87-.37,4.18-.35,10-.66,2.88-.15,21.77-1.11,24.48-.78a.06.06,0,0,1,0,.12c-2.67.56-21.57,1.19-24.45,1.29-5.88.19-4.19.07-10.07.2C284.44,435.79,284.43,435.62,284.54,435.62Z" style="fill:#37474f"></path><path d="M261.7,286.2A71.16,71.16,0,0,1,273,291.44a.13.13,0,0,1-.11.23c-3.79-1.63-7.66-3.19-11.36-5A.25.25,0,0,1,261.7,286.2Z" style="fill:#37474f"></path><path d="M260.5,260.16c0-.13.24-.16.24,0a123.88,123.88,0,0,0,.63,12.68c.18,1.95,1.75,12.75,5.14,12,.57-.14.86-.69.95-1.55a13.88,13.88,0,0,0-.45-3.31c-.38-2.26-.68-4.53-.88-6.82a61.94,61.94,0,0,1,.14-12.77.11.11,0,0,1,.22,0,118.24,118.24,0,0,0,1,17.64c.43,2.81,1.84,7-1.1,7.47s-4.93-6.65-5.29-8.58A64.58,64.58,0,0,1,260.5,260.16Z" style="fill:#37474f"></path><path d="M266.42,285.08a17.36,17.36,0,0,1,.76,2.24,5.06,5.06,0,0,1,.32,1.84c0,.12-.17.13-.24,0a6.8,6.8,0,0,1-.78-1.79c-.26-.7-.53-1.38-.77-2.08A.38.38,0,0,1,266.42,285.08Z" style="fill:#37474f"></path><path d="M314.22,429l-2.65-21.55L309,385.86l-4.93-43.14-4.66-43.18-.55-5.4-.27-2.72-.06-.69a2.5,2.5,0,0,1,.13-.75l.38-1.3a32.75,32.75,0,0,0,1-5.28,37.29,37.29,0,0,0,.13-5.39c-.3-7.21-2.43-14.24-5.26-20.89,3,6.58,5.28,13.58,5.74,20.87a35.55,35.55,0,0,1,0,5.46,34,34,0,0,1-.94,5.39l-.36,1.31a2.14,2.14,0,0,0-.1.58l.07.66.3,2.68.61,5.39,4.9,43.15,4.7,43.17,2.27,21.59Z" style="fill:#37474f"></path><path d="M272.44,210.86c-7.9,20-19,39-25.48,40.28-8.69,1.71-28.81-4-39-7.92-3-1.15,6.45-24.23,9.65-23,3.86,1.48,23.73,9.49,24.14,9.52.89,0,18.58-17.24,22.71-21.47C271.37,201.2,275.94,202,272.44,210.86Z" style="fill:#eb9481"></path><path d="M210.26,243.49c-2.85-.36-16-3.08-19.38-4.66s-12.95-6.83-12-9.58,3.85-1.43,3.85-1.43-3.67-2.85-2.47-5.53,5.67-.48,5.67-.48-3.56-3.21-2.17-5.79,5.5.37,5.5.37-3.39-2.78-1.35-4.43c2.46-2,8.12,3.85,12,5.31.88.33,18.48,5.43,18.48,5.43Z" style="fill:#eb9481"></path><path d="M188.9,216.14c4.17,4.28,6.74,5.43,12.47,6.8.11,0,.09.2,0,.18-5.73-.82-9.16-1.8-12.67-6.78C188.51,216.09,188.7,215.94,188.9,216.14Z" style="fill:#263238"></path><path d="M185.59,221.46c4.73,4.07,7.5,5.34,13.39,7.21.09,0,.05.18,0,.16-5.94-1.36-9.34-2.41-13.53-7.1C185.23,221.52,185.37,221.28,185.59,221.46Z" style="fill:#263238"></path><path d="M183,227.91c4.86,3.61,7.84,5.13,13.79,6.22a.11.11,0,0,1,0,.22c-6.18-.52-9.92-2.39-13.87-6.28C182.66,227.8,182.72,227.68,183,227.91Z" style="fill:#263238"></path><path d="M222.09,223.51s-4.15-6.24-6.58-8.58-14.69-7.72-16-5.14c-1.7,3.34,4.77,7.84,8.22,9.63,0,0-3.92,7.71,0,11.94S222.09,223.51,222.09,223.51Z" style="fill:#eb9481"></path><path d="M199.34,210.86c.65,4.16,5.34,6.21,8.56,8.2a.35.35,0,0,1,0,.57c-1.43,3.34-2.47,8.47-.44,11.72a.09.09,0,0,1-.14.11c-2.65-3.2-2-8.32-.24-11.88-3.33-2-7.94-4.26-7.83-8.71C199.3,210.84,199.34,210.84,199.34,210.86Z" style="fill:#263238"></path><path d="M262.93,233.1l-21.4-9s19.67-16.27,26.8-19.42c8-3.55,8.09,1.33,5.15,9.14S262.93,233.1,262.93,233.1Z" style="fill:#455a64"></path><path d="M247.54,226.64l15.39,6.46s7.6-11.46,10.55-19.26c2.45-6.51,2.82-11-1.77-10.23Z" style="fill:#37474f"></path><path d="M246.13,221.58c.79.2,7.51,2.89,9,3.51s7.39,3.08,8.83,3.85a.05.05,0,0,1,0,.1c-1.55-.47-7.55-2.94-9-3.54s-8.07-3.41-8.75-3.82C246,221.64,246.08,221.57,246.13,221.58Z" style="fill:#263238"></path><path d="M263.75,231.5a4.75,4.75,0,0,0-.2.64q.13-.19.27-.42A.81.81,0,0,0,263.75,231.5ZM253,220.39a5.58,5.58,0,0,0-2,.36,5.38,5.38,0,0,0,2,.36,5.48,5.48,0,0,0,2.05-.36A5.69,5.69,0,0,0,253,220.39Zm15.71-2.51a5.56,5.56,0,0,0-1.7-1.18,6,6,0,0,0,2.88,2.88A5.8,5.8,0,0,0,268.74,217.88Z" style="fill:#fff"></path><path d="M253,227.18h0a3.2,3.2,0,0,0,.21,4.71h0a3.19,3.19,0,0,1,.21,4.71h0a3.19,3.19,0,0,0,.21,4.71h0a3.2,3.2,0,0,1,.21,4.71h0a3.19,3.19,0,0,0,.21,4.71h0a3.19,3.19,0,0,1,.22,4.71h0a3.19,3.19,0,0,0,.22,4.71h0a3.2,3.2,0,0,1,.21,4.72h0a3.18,3.18,0,0,0,.21,4.71h0a3.19,3.19,0,0,1,.21,4.71h0a3.7,3.7,0,0,1-5,.23h0a3.7,3.7,0,0,0-5,.23h0a3.72,3.72,0,0,1-5,.23h0a3.71,3.71,0,0,0-5,.23h0a3.71,3.71,0,0,1-5,.23h0a3.71,3.71,0,0,0-5,.23h0a3.72,3.72,0,0,1-5,.23v0a3.73,3.73,0,0,0-5,.23h0a3.7,3.7,0,0,1-5,.23h0a3.71,3.71,0,0,0-5,.23h0a3.72,3.72,0,0,1-5,.23h0a3.71,3.71,0,0,0-5,.23h0a3.71,3.71,0,0,1-5,.23h0a3.19,3.19,0,0,1-.21-4.71h0a3.2,3.2,0,0,0-.22-4.71h0a3.19,3.19,0,0,1-.22-4.71h0a3.18,3.18,0,0,0-.21-4.7v0a3.18,3.18,0,0,1-.22-4.7v0a3.18,3.18,0,0,0-.21-4.7h0a3.19,3.19,0,0,1-.22-4.71h0a3.19,3.19,0,0,0-.22-4.71h0a3.19,3.19,0,0,1-.21-4.71h0a3.2,3.2,0,0,0-.21-4.71h0a3.18,3.18,0,0,1-.21-4.71h0a3.2,3.2,0,0,0-.21-4.71h0A3.18,3.18,0,0,1,187,216h0a3.71,3.71,0,0,1,5-.23h0a3.71,3.71,0,0,0,5-.22h0a3.71,3.71,0,0,1,5-.23h0a3.71,3.71,0,0,0,5-.22v0a3.71,3.71,0,0,1,5-.22h0a3.71,3.71,0,0,0,5-.23h0a3.71,3.71,0,0,1,5-.23h0a3.71,3.71,0,0,0,5-.22h0a3.7,3.7,0,0,1,5-.23h0a3.72,3.72,0,0,0,5-.22h0a3.71,3.71,0,0,1,5-.23h0a3.72,3.72,0,0,0,5-.22v0a3.71,3.71,0,0,1,5-.22h0a3.19,3.19,0,0,1,.22,4.71h0a3.19,3.19,0,0,0,.21,4.71h0A3.2,3.2,0,0,1,253,227.18Z" style="fill:#F5AD35"></path><rect x="197.92" y="224.04" width="46.27" height="42.27" transform="translate(-10.87 10.25) rotate(-2.59)" style="fill:#fff"></rect><path d="M235.1,265.69l-26.18,1.19a10.63,10.63,0,0,1,.46-1.62c1.64-4.06,6.74-9.62,6.74-9.62s-6.62-7.45-7.13-9.92.7-12.43,3.58-14.73,9.38-3.75,12.76-2.07,7.94,14.44,7.94,14.44l-3,.15s1.12,5.08.88,5.42-5.05,5.59-5.05,5.59,7.47,7.32,8.47,9.18A8.93,8.93,0,0,1,235.1,265.69Z" style="fill:#F5AD35"></path><path d="M235.1,265.69l-26.18,1.19a10.63,10.63,0,0,1,.46-1.62c1.64-4.06,6.74-9.62,6.74-9.62s-6.62-7.45-7.13-9.92.7-12.43,3.58-14.73,9.38-3.75,12.76-2.07,7.94,14.44,7.94,14.44l-3,.15s1.12,5.08.88,5.42-5.05,5.59-5.05,5.59,7.47,7.32,8.47,9.18A8.93,8.93,0,0,1,235.1,265.69Z" style="opacity:0.2"></path><path d="M254.73,259.64l46-2S288,219,277.28,209c-4.86-4.52-9.23-3.48-12.77-.11-.88.85-10.89,17.41-11.51,22.61-.55,4.6,2.37,9.37,2.37,9.37Z" style="fill:#455a64"></path><path d="M279.1,242.89a5.48,5.48,0,0,0-1.1,1.75,5.59,5.59,0,0,0,1.64-1.27,5.31,5.31,0,0,0,1.1-1.75A6.06,6.06,0,0,0,279.1,242.89Zm-12-22a5.53,5.53,0,0,0-1.75-1.1,5.24,5.24,0,0,0,1.26,1.63,5.36,5.36,0,0,0,1.75,1.12A5.82,5.82,0,0,0,267.08,220.85ZM293,249.71a5.62,5.62,0,0,0-2,.45,5.4,5.4,0,0,0,2,.27,5.34,5.34,0,0,0,2-.46A6,6,0,0,0,293,249.71ZM279.67,228.1a5.47,5.47,0,0,0-2,.45,5.66,5.66,0,0,0,2.06.27,5.42,5.42,0,0,0,2-.45A5.42,5.42,0,0,0,279.67,228.1Zm-12.95,22.45a5.41,5.41,0,0,0-2,.44,5.45,5.45,0,0,0,2.06.27,5.29,5.29,0,0,0,2-.46A5.63,5.63,0,0,0,266.72,250.55Zm12.68,7a4.87,4.87,0,0,0-.22,1l.55,0A4.26,4.26,0,0,0,279.4,257.53Zm-16.69-22.85a5.83,5.83,0,0,0-.27,2,6.21,6.21,0,0,0,.46,2,5.94,5.94,0,0,0,.27-2.07A5.64,5.64,0,0,0,262.71,234.68Zm29.77,1.06a3.78,3.78,0,0,0,.29.88s0-.07,0-.11C292.69,236.26,292.58,236,292.48,235.74ZM279.4,211.31a5.81,5.81,0,0,0,0,.59,5.68,5.68,0,0,0,.45,2,5.19,5.19,0,0,0,.27-1.72Z" style="fill:#fff"></path><path d="M261.82,237.73a37,37,0,0,1,6.19.76c1,.23,2,.51,3,.82.5.15,1,.28,1.5.41a5.49,5.49,0,0,0,1.6.24c.05,0,.05.08,0,.09a9.62,9.62,0,0,1-1.52.06,9,9,0,0,1-1.46-.22c-1-.22-2.06-.49-3.09-.73-2.08-.47-4.15-.94-6.25-1.23C261.71,237.91,261.72,237.72,261.82,237.73Z" style="fill:#263238"></path><path d="M256.87,240.16a39.73,39.73,0,0,1,5.09-.62c.86,0,1.71,0,2.56,0l1.23.08c.45,0,.89.14,1.34.17.05,0,.06.09,0,.09-.43,0-.85.05-1.28.07l-1.27,0-2.56.1c-1.71,0-3.41.1-5.11.22C256.79,240.32,256.79,240.17,256.87,240.16Z" style="fill:#263238"></path><path d="M281.49,218.63c1.61,10.44-9.17,43.83-13.82,48.8-6.75,7.22-33.7,13.76-41,15.71-3.16.85-7.59-22.65-4.23-23.62,7.36-2.12,26.4-7.43,28.43-9.09s10.34-15.63,16.74-25.12C276.23,212.59,280.68,213.34,281.49,218.63Z" style="fill:#eb9481"></path><path d="M213.92,264c1.33-.85.89-1.55-1.91-1.82s-14.08,1.07-14.21-2.91,15.82-5.62,20.44-4.83,11.82,3.71,11.82,3.71C227,259.09,219.86,262.08,213.92,264Z" style="fill:#eb9481"></path><path d="M234.85,280.93c-8.79,2.6-19.65,6-29.41,3.34a5,5,0,0,1-2.75-1.79c-4.4-1.12-5.19-3.54-5.19-3.54-3.78-2.3-4.24-4.88-4.24-4.88s-5.15-1.37-4.84-4.62c.34-3.65,7.51-1,12.34-2,11.06-2.18,26.17-8.39,29.3-9.33Z" style="fill:#eb9481"></path><path d="M214,273.34a71.82,71.82,0,0,1-9.79,1.36,72.26,72.26,0,0,1-10.81-.71.09.09,0,1,0,0,.17,38.41,38.41,0,0,0,20.67-.67C214.14,273.44,214.12,273.31,214,273.34Z" style="fill:#263238"></path><path d="M216.25,279.82c-3.21.39-8.86,1-18.73-1,0,0-.05,0,0,.05A34.37,34.37,0,0,0,216.27,280C216.47,279.94,216.46,279.8,216.25,279.82Z" style="fill:#263238"></path><path d="M217.41,283.33c-5.48.45-9,0-14.7-.87,0,0-.05.05,0,.06,6.37,1.71,8.87,1.61,14.76,1C217.66,283.5,217.63,283.31,217.41,283.33Z" style="fill:#263238"></path><path d="M259,237l17.83,15.08s5.6-25.07,5.16-32.91c-.49-8.82-4.89-6.64-10.54-.43S259,237,259,237Z" style="fill:#455a64"></path><path d="M279.64,213.39a2.55,2.55,0,0,0,.2.54,3.59,3.59,0,0,0,.11-.41A1.69,1.69,0,0,0,279.64,213.39Zm-16.93,21.29a5.83,5.83,0,0,0-.27,2,6.21,6.21,0,0,0,.46,2,5.94,5.94,0,0,0,.27-2.07A5.64,5.64,0,0,0,262.71,234.68Zm17-6.58a5.47,5.47,0,0,0-2,.45,5.66,5.66,0,0,0,2.06.27,6.63,6.63,0,0,0,1.52-.26c0-.11,0-.21,0-.32A5.39,5.39,0,0,0,279.67,228.1ZM278,244.64a3,3,0,0,0,.42-.24c.05-.28.11-.56.17-.86A3.75,3.75,0,0,0,278,244.64Z" style="fill:#fff"></path><path d="M277,246.76c-.53-.61-6-5.4-7.23-6.42s-6.14-5.21-7.48-6.15c-.06,0-.13,0-.08.08,1.14,1.18,6.09,5.42,7.31,6.48s6.74,5.68,7.42,6.1C277,246.89,277,246.81,277,246.76Z" style="fill:#263238"></path><path d="M260.4,238.15c-.5-.49-1.32-1.23-1.32-1.23,1.31-2.37,9-13.77,10.84-16.55,0,0,0-.09-.07,0-1.13,1.51-2.24,3-3.35,4.53.11-.21.21-.42.32-.64.37-.76.72-1.53,1.12-2.27,0-.06-.05-.13-.09-.06a18.74,18.74,0,0,0-1.29,2.21c-.26.54-.48,1.1-.69,1.66-.63.88-1.26,1.75-1.87,2.64-1.86,2.74-3.88,5.52-5.53,8.39a12.23,12.23,0,0,0,1.84,1.5A.08.08,0,0,0,260.4,238.15Z" style="fill:#263238"></path><path d="M275.09,250.59c.62.43,1.22.89,1.83,1.34l-.26.08,1.84-9,.92-4.52c.31-1.51.61-3,1-4.53-.08,1.54-.23,3.08-.44,4.61s-.44,3.06-.72,4.58a73.54,73.54,0,0,1-2.25,9l-.08.25-.18-.17C276.17,251.65,275.62,251.14,275.09,250.59Z" style="fill:#263238"></path><path d="M279.48,239.68a15.16,15.16,0,0,1,.61-1.76,10.42,10.42,0,0,1,.81-1.69,3.82,3.82,0,0,1-.08,1,4.56,4.56,0,0,1-.27.91A4,4,0,0,1,279.48,239.68Z" style="fill:#263238"></path><path d="M268.05,196.79c1.36-2.75,8.46-5.11,12.67-2.84,5.8,3.14,3.58,14.19-3.84,14.27S267,198.92,268.05,196.79Z" style="fill:#c7c7c7"></path><path d="M283.5,203.12a13.24,13.24,0,0,0,.27-6.39,4.93,4.93,0,0,0-4.14-3.87,12.15,12.15,0,0,0-3.14-.12,14.28,14.28,0,0,0-3.12.56,10.93,10.93,0,0,0-5.32,3.49,9.42,9.42,0,0,1,5-4.28,12.57,12.57,0,0,1,3.31-.78,12.36,12.36,0,0,1,3.43.09,6.14,6.14,0,0,1,3.17,1.59,5.81,5.81,0,0,1,1.57,3.14A11,11,0,0,1,283.5,203.12Z" style="fill:#c7c7c7"></path><path d="M270.63,206.08c3.57.18,2.93,4.61,1.74,7.5s-4.76,5.83-5.61,5.78-1.36-3.75-1.36-3.75-2.48,3.21-3.22,2.89c-.47-.19.18-4,.55-5.45S265.16,205.81,270.63,206.08Z" style="fill:#fff"></path><path d="M272.48,207.75c0,.88-2.47,7.3-6.29,8.15-1.25.27-3-6.47-3-6.47l-.25-.46-3.43-6.54,6.76-7.46,1-1s.83,1.85,1.83,4.17l.14.33c.06.13.12.25.17.37.15.34.31.7.45,1s.23.53.34.82.22.56.34.84A48.44,48.44,0,0,1,272.48,207.75Z" style="fill:#eb9481"></path><path d="M269.05,198.13A14.84,14.84,0,0,1,262.9,209l-3.43-6.54,6.76-7.46,1-1S268.05,195.81,269.05,198.13Z" style="fill:#263238"></path><path d="M246.76,192.33c-.78,12.94,6.89,14.87,9.68,15,2.53.15,11.18.33,13.29-12.46s-3.66-17.24-9.44-17.89S247.54,179.39,246.76,192.33Z" style="fill:#eb9481"></path><path d="M248.8,190.62a8.41,8.41,0,0,0,.87-.19,1.49,1.49,0,0,0,.86-.37.45.45,0,0,0,0-.56,1.13,1.13,0,0,0-1.13-.26,1.69,1.69,0,0,0-1,.61A.49.49,0,0,0,248.8,190.62Z" style="fill:#c7c7c7"></path><path d="M257.44,190.84c-.3,0-.58-.12-.88-.18a1.43,1.43,0,0,1-.86-.35.47.47,0,0,1,0-.56,1.12,1.12,0,0,1,1.12-.28,1.61,1.61,0,0,1,1.06.58A.49.49,0,0,1,257.44,190.84Z" style="fill:#c7c7c7"></path><path d="M255.56,193.77s.07,0,.07.07c0,.89.06,1.9.86,2.21,0,0,0,0,0,0C255.51,196,255.39,194.59,255.56,193.77Z" style="fill:#263238"></path><path d="M256.36,192.85c1.43-.08,1.5,2.76.18,2.85S255.17,192.93,256.36,192.85Z" style="fill:#263238"></path><path d="M256.93,193c.25.15.5.43.8.46s.61-.28.82-.58c0,0,.05,0,.05,0,0,.55-.17,1.12-.75,1.21s-.93-.38-1.08-.93C256.74,193.08,256.83,192.93,256.93,193Z" style="fill:#263238"></path><path d="M250.65,193.56s-.07.05-.07.08c.06.88,0,1.9-.81,2.22,0,0,0,.06,0,0C250.75,195.74,250.84,194.39,250.65,193.56Z" style="fill:#263238"></path><path d="M249.83,192.67c-1.42-.06-1.44,2.79-.12,2.84S251,192.72,249.83,192.67Z" style="fill:#263238"></path><path d="M249.23,192.85c-.22.15-.45.42-.72.44s-.54-.29-.73-.59c0,0-.05,0-.05,0,0,.55.16,1.12.68,1.22s.83-.36,1-.91C249.4,192.94,249.32,192.79,249.23,192.85Z" style="fill:#263238"></path><path d="M255.92,200.6c-.19.22-.38.52-.7.57a2.28,2.28,0,0,1-1-.15,0,0,0,0,0,0,0,1.2,1.2,0,0,0,1.15.4.94.94,0,0,0,.64-.83S256,200.57,255.92,200.6Z" style="fill:#263238"></path><path d="M252.19,197.46s-.16,1.32-.16,1.95c0,.06.16.08.37.09h0a3,3,0,0,0,2.86-1.14c0-.06,0-.13-.1-.09a4.39,4.39,0,0,1-2.68.81c-.05-.17.35-2.25.25-2.26a5.87,5.87,0,0,0-1.41.34c.27-2.76,1-5.46,1.19-8.21,0-.1-.14-.12-.16,0a45.25,45.25,0,0,0-1.66,8.79C250.67,198.06,251.94,197.57,252.19,197.46Z" style="fill:#263238"></path><path d="M252.44,199a3.66,3.66,0,0,0,1.33,1.26,1.56,1.56,0,0,0,1,.16c.73-.11.81-.76.74-1.33a3.77,3.77,0,0,0-.24-.89A4.63,4.63,0,0,1,252.44,199Z" style="fill:#263238"></path><path d="M253.77,200.28a1.56,1.56,0,0,0,1,.16c.73-.11.81-.76.74-1.33A1.68,1.68,0,0,0,253.77,200.28Z" style="fill:#ff9abb"></path><g style="opacity:0.2"><path d="M254.8,187.73a13.46,13.46,0,0,1-1.68,0c-.57,0-1.12-.22-1.69-.26a8.84,8.84,0,0,0-3.18.52c-.09,0-.07.09,0,.06a7.92,7.92,0,0,1,3.35-.28,10,10,0,0,0,2.78.21,9.71,9.71,0,0,1,6.13,1s0,0,0,0A9.81,9.81,0,0,0,254.8,187.73Z"></path><path d="M254.92,186.18a10.55,10.55,0,0,1-1.59,0c-.54-.05-1.06-.21-1.6-.25a8.49,8.49,0,0,0-3,.5c-.09,0-.08.08,0,.06a7.3,7.3,0,0,1,3.18-.27,9.29,9.29,0,0,0,2.63.19,9.2,9.2,0,0,1,5.81,1s0,0,0,0A9.24,9.24,0,0,0,254.92,186.18Z"></path></g><path d="M270.24,196.24c-2.25.13-2.68-4.58-2.68-4.58s-4.56-.07-5.95-6.65a10.12,10.12,0,0,0,1.93,5.46s-8-1-11.29-7.78c0,0,1.29,3.45,2.53,4.69a9.43,9.43,0,0,1-4.95-3.77s-1.47,3.86-2.58,4.91c0,0,.59-14.06,13.59-12.33,0,0,8.15.69,11,7.2S270.24,196.24,270.24,196.24Z" style="fill:#c7c7c7"></path><path d="M267.48,194.68s2.72-4.13,4.58-3.17-.11,6.89-2.24,7.74a2.19,2.19,0,0,1-3-1.1Z" style="fill:#eb9481"></path><path d="M271.45,193.2s0,0,0,.06a5.54,5.54,0,0,0-2.77,3.54,1.21,1.21,0,0,1,1.8-.38,0,0,0,0,1,0,.08A1.35,1.35,0,0,0,269,197a6.87,6.87,0,0,0-.67,1.22c-.07.14-.32.07-.27-.09v0C268,196.18,269.39,193.45,271.45,193.2Z" style="fill:#263238"></path></g></svg>